<svg xmlns="http://www.w3.org/2000/svg" viewBox="0 0 135 40" width="135" height="40" role="img" aria-label="Download on the App Store">
  <rect width="135" height="40" rx="6" fill="#000"/>
  <rect x="0.5" y="0.5" width="134" height="39" rx="5.5" fill="none" stroke="#a6a6a6"/>
  <path fill="#fff" d="M27.9 20.3c-.02-2 1.63-2.96 1.7-3.01-.93-1.36-2.37-1.54-2.88-1.56-1.22-.13-2.4.72-3.02.72-.63 0-1.59-.71-2.61-.69-1.34.02-2.58.78-3.27 1.98-1.41 2.44-.36 6.04 1 8.02.67.97 1.46 2.06 2.5 2.02 1.01-.04 1.39-.65 2.61-.65 1.21 0 1.56.65 2.62.63 1.08-.02 1.77-.99 2.42-1.97.77-1.12 1.09-2.22 1.1-2.28-.03-.01-2.09-.8-2.11-3.18zm-1.98-5.85c.55-.68.93-1.62.83-2.57-.8.04-1.79.55-2.36 1.22-.51.58-.96 1.56-.84 2.47.9.07 1.81-.45 2.37-1.12z"/>
  <text x="45" y="16" fill="#fff" font-family="Helvetica, Arial, sans-serif" font-size="8">Download on the</text>
  <text x="45" y="30" fill="#fff" font-family="Helvetica, Arial, sans-serif" font-size="16" font-weight="600">App Store</text>
</svg>
