<svg xmlns="http://www.w3.org/2000/svg" viewBox="0 0 400 400" width="28" height="28" aria-hidden="true"><path d="M305.5 321.9c-15.2 0-30.7-9.1-34.6-28.2H129.1c-3.9 19.1-19.4 28.2-34.6 28.2-19.4 0-34.9-15.8-34.9-35.2v-103l8.5-17.3H42.7v-28.2h38.8l29.6-61.4h177.8l29.6 61.4h38.8v28.2h-25.4l8.5 17.3v103c0 19.4-15.5 35.2-34.9 35.2zm-6.4-164-26.8-54.7H127.7l-26.8 54.7zm2.8 135.5c6.7 0 12-5.3 12-12v-97H86v97c0 6.7 5.3 12 12 12s11.7-5.3 11.7-12v-14.1h180.6v14.1c0 6.7 4.9 12 11.6 12zm-69.5-86.8h54.3V233h-44.1c-11.6 9.9-26.4 16.3-42.6 16.3-16.3 0-31.1-6.4-42.7-16.3h-44.1v-26.4h54.3c7.4 10.2 19.1 16.9 32.5 16.9 13.4 0 25-6.7 32.4-16.9z"/></svg>
